<?xml version="1.0" encoding="utf-8"?>
<!-- Generator: Adobe Illustrator 23.1.1, SVG Export Plug-In . SVG Version: 6.00 Build 0)  -->
<svg version="1.1" id="Layer_1" xmlns="http://www.w3.org/2000/svg" xmlns:xlink="http://www.w3.org/1999/xlink" x="0px" y="0px"
	 viewBox="0 0 1133.86 172.31" style="enable-background:new 0 0 1133.86 172.31;" xml:space="preserve">
<style type="text/css">
	.st0{fill:#FFFFFF;}
</style>
<g>
	<path d="M340.48,45.23l31.46,59.49h-62.93L340.48,45.23z M309.51,0l-97.58,172.06h61.21l14.26-26.79h105.94l14.01,26.79h64.16
		L373.41,0H309.51z"/>
	<polygon points="747,0 747,172.06 925.21,172.06 925.21,125.36 803.54,125.36 803.54,0 	"/>
	<g>
		<path d="M546.14,43.02h84.31c5.65,0,10.08,1.48,13.52,4.18c3.2,2.95,4.92,6.88,4.92,11.55s-1.72,8.6-4.92,11.31
			c-3.44,2.95-7.87,4.42-13.52,4.42h-84.31V43.02z M658.85,112.91h-5.83c13.68-1.86,18.73-4.26,18.73-4.26
			c10.81-4.67,19.17-11.31,25.07-20.16c5.66-8.6,8.6-19.17,8.6-31.46c0-17.94-6.15-31.95-18.43-42.03C674.45,4.92,657.25,0,635.13,0
			H489.61v172.06h56.54v-53.89l55.88-0.22c19.69,0,26.36,13.43,49.62,54.04h71.27C703.05,132.25,689.63,114.83,658.85,112.91"/>
	</g>
	<polygon points="0,0 0,172.06 198.12,172.06 198.12,128.31 56.54,128.31 56.54,106.19 193.94,106.19 193.94,65.63 56.54,65.63 
		56.54,43.75 198.12,43.75 198.12,0 	"/>
	<g>
		<path d="M963.52,110.5c-9.87,0-17.88-2.06-25.56-7.32c-12.46-7.4-21.87-20.56-32.6-40.76c-9.46-15.7-20.61-36.05-34.93-62.17
			h66.86c22.44,48.52,39.04,75.09,59.12,89.74c0.01,0,5.73-3.89,21.67-24.11L1067,0.24h66.86l-89.23,110.61v61.45h-56.54v-61.7
			L963.52,110.5z"/>
	</g>
</g>
</svg>
